<?xml version="1.0" encoding="UTF-8"?>
<svg xmlns="http://www.w3.org/2000/svg" xmlns:xlink="http://www.w3.org/1999/xlink" width="576pt" height="288pt" viewBox="0 0 576 288" version="1.1">
<defs>
<g>
<symbol overflow="visible" id="glyph0-0">
<path style="stroke:none;" d=""/>
</symbol>
<symbol overflow="visible" id="glyph0-1">
<path style="stroke:none;" d="M 4.453125 -3 C 4.453125 -5.15625 3.78125 -6.234375 2.421875 -6.234375 C 1.078125 -6.234375 0.375 -5.140625 0.375 -3.046875 C 0.375 -0.953125 1.078125 0.125 2.421875 0.125 C 3.734375 0.125 4.453125 -0.953125 4.453125 -3 Z M 3.671875 -3.0625 C 3.671875 -1.296875 3.265625 -0.515625 2.40625 -0.515625 C 1.578125 -0.515625 1.171875 -1.34375 1.171875 -3.046875 C 1.171875 -4.75 1.578125 -5.546875 2.421875 -5.546875 C 3.25 -5.546875 3.671875 -4.734375 3.671875 -3.0625 Z M 3.671875 -3.0625 "/>
</symbol>
<symbol overflow="visible" id="glyph0-2">
<path style="stroke:none;" d="M 3.046875 0 L 3.046875 -6.234375 L 2.546875 -6.234375 C 2.265625 -5.28125 2.09375 -5.140625 0.890625 -5 L 0.890625 -4.4375 L 2.28125 -4.4375 L 2.28125 0 Z M 3.046875 0 "/>
</symbol>
<symbol overflow="visible" id="glyph0-3">
<path style="stroke:none;" d="M 4.5 -4.40625 C 4.5 -5.46875 3.671875 -6.234375 2.5 -6.234375 C 1.21875 -6.234375 0.484375 -5.59375 0.4375 -4.078125 L 1.21875 -4.078125 C 1.28125 -5.125 1.703125 -5.5625 2.46875 -5.5625 C 3.171875 -5.5625 3.703125 -5.0625 3.703125 -4.390625 C 3.703125 -3.890625 3.40625 -3.46875 2.859375 -3.15625 L 2.046875 -2.703125 C 0.75 -1.96875 0.375 -1.375 0.296875 0 L 4.453125 0 L 4.453125 -0.765625 L 1.171875 -0.765625 C 1.25 -1.28125 1.53125 -1.59375 2.296875 -2.046875 L 3.171875 -2.53125 C 4.046875 -2.984375 4.5 -3.640625 4.5 -4.40625 Z M 4.5 -4.40625 "/>
</symbol>
<symbol overflow="visible" id="glyph0-4">
<path style="stroke:none;" d="M 4.453125 -1.8125 C 4.453125 -2.5625 4.140625 -3.015625 3.390625 -3.265625 C 3.96875 -3.5 4.265625 -3.890625 4.265625 -4.515625 C 4.265625 -5.59375 3.546875 -6.234375 2.359375 -6.234375 C 1.109375 -6.234375 0.4375 -5.546875 0.40625 -4.21875 L 1.1875 -4.21875 C 1.203125 -5.140625 1.578125 -5.5625 2.375 -5.5625 C 3.0625 -5.5625 3.46875 -5.15625 3.46875 -4.5 C 3.46875 -3.828125 3.1875 -3.546875 1.9375 -3.546875 L 1.9375 -2.90625 L 2.359375 -2.90625 C 3.21875 -2.90625 3.65625 -2.5 3.65625 -1.796875 C 3.65625 -1.015625 3.171875 -0.546875 2.359375 -0.546875 C 1.515625 -0.546875 1.109375 -0.96875 1.0625 -1.875 L 0.28125 -1.875 C 0.375 -0.5 1.0625 0.125 2.34375 0.125 C 3.625 0.125 4.453125 -0.640625 4.453125 -1.8125 Z M 4.453125 -1.8125 "/>
</symbol>
<symbol overflow="visible" id="glyph0-5">
<path style="stroke:none;" d="M 4.578125 -1.5 L 4.578125 -2.1875 L 3.65625 -2.1875 L 3.65625 -6.234375 L 3.078125 -6.234375 L 0.25 -2.3125 L 0.25 -1.5 L 2.875 -1.5 L 2.875 0 L 3.65625 0 L 3.65625 -1.5 Z M 2.875 -2.1875 L 0.921875 -2.1875 L 2.875 -4.921875 Z M 2.875 -2.1875 "/>
</symbol>
<symbol overflow="visible" id="glyph1-0">
<path style="stroke:none;" d=""/>
</symbol>
<symbol overflow="visible" id="glyph1-1">
<path style="stroke:none;" d="M 0 -8.359375 L -4.328125 -8.359375 C -5.359375 -8.359375 -5.921875 -7.78125 -5.921875 -6.703125 C -5.921875 -5.9375 -5.703125 -5.484375 -5.046875 -4.9375 C -5.671875 -4.59375 -5.921875 -4.140625 -5.921875 -3.390625 C -5.921875 -2.625 -5.640625 -2.109375 -4.953125 -1.609375 L -5.765625 -1.609375 L -5.765625 -0.78125 L 0 -0.78125 L 0 -1.6875 L -3.625 -1.6875 C -4.453125 -1.6875 -5.125 -2.296875 -5.125 -3.046875 C -5.125 -3.734375 -4.703125 -4.109375 -3.96875 -4.109375 L 0 -4.109375 L 0 -5.03125 L -3.625 -5.03125 C -4.453125 -5.03125 -5.125 -5.640625 -5.125 -6.390625 C -5.125 -7.0625 -4.703125 -7.453125 -3.96875 -7.453125 L 0 -7.453125 Z M 0 -8.359375 "/>
</symbol>
<symbol overflow="visible" id="glyph1-2">
<path style="stroke:none;" d="M 0 -1.6875 L -5.765625 -1.6875 L -5.765625 -0.765625 L 0 -0.765625 Z M -6.640625 -1.796875 L -7.78125 -1.796875 L -7.78125 -0.65625 L -6.640625 -0.65625 Z M -6.640625 -1.796875 "/>
</symbol>
<symbol overflow="visible" id="glyph1-3">
<path style="stroke:none;" d="M 0 -1.65625 L -8.015625 -1.65625 L -8.015625 -0.75 L 0 -0.75 Z M 0 -1.65625 "/>
</symbol>
<symbol overflow="visible" id="glyph1-4">
<path style="stroke:none;" d="M -2.84375 -5.609375 C -4.828125 -5.609375 -5.921875 -4.65625 -5.921875 -2.984375 C -5.921875 -1.375 -4.8125 -0.390625 -2.875 -0.390625 C -0.953125 -0.390625 0.171875 -1.359375 0.171875 -3 C 0.171875 -4.625 -0.953125 -5.609375 -2.84375 -5.609375 Z M -2.84375 -4.65625 C -1.5 -4.65625 -0.6875 -4.015625 -0.6875 -3 C -0.6875 -1.984375 -1.484375 -1.359375 -2.875 -1.359375 C -4.265625 -1.359375 -5.078125 -1.984375 -5.078125 -3 C -5.078125 -4.03125 -4.28125 -4.65625 -2.84375 -4.65625 Z M -2.84375 -4.65625 "/>
</symbol>
<symbol overflow="visible" id="glyph1-5">
<path style="stroke:none;" d="M 0 -5.359375 L -4.359375 -5.359375 C -5.3125 -5.359375 -5.921875 -4.640625 -5.921875 -3.53125 C -5.921875 -2.671875 -5.59375 -2.125 -4.796875 -1.609375 L -5.765625 -1.609375 L -5.765625 -0.765625 L 0 -0.765625 L 0 -1.6875 L -3.171875 -1.6875 C -4.359375 -1.6875 -5.125 -2.328125 -5.125 -3.25 C -5.125 -3.984375 -4.6875 -4.4375 -4 -4.4375 L 0 -4.4375 Z M 0 -5.359375 "/>
</symbol>
<symbol overflow="visible" id="glyph1-6">
<path style="stroke:none;" d="M -1.609375 -5.046875 C -2.46875 -5.046875 -2.90625 -4.5625 -3.171875 -3.421875 L -3.390625 -2.546875 C -3.5625 -1.796875 -3.8125 -1.46875 -4.21875 -1.46875 C -4.734375 -1.46875 -5.078125 -1.953125 -5.078125 -2.6875 C -5.078125 -3.4375 -4.765625 -3.828125 -4.15625 -3.84375 L -4.15625 -4.8125 C -5.296875 -4.8125 -5.921875 -4.0625 -5.921875 -2.734375 C -5.921875 -1.390625 -5.234375 -0.515625 -4.171875 -0.515625 C -3.265625 -0.515625 -2.84375 -0.984375 -2.515625 -2.34375 L -2.296875 -3.203125 C -2.140625 -3.84375 -1.953125 -4.09375 -1.546875 -4.09375 C -1 -4.09375 -0.6875 -3.546875 -0.6875 -2.75 C -0.6875 -1.921875 -0.875 -1.46875 -1.765625 -1.34375 L -1.765625 -0.375 C -0.421875 -0.421875 0.171875 -1.171875 0.171875 -2.671875 C 0.171875 -4.125 -0.5 -5.046875 -1.609375 -5.046875 Z M -1.609375 -5.046875 "/>
</symbol>
<symbol overflow="visible" id="glyph2-0">
<path style="stroke:none;" d=""/>
</symbol>
<symbol overflow="visible" id="glyph2-1">
<path style="stroke:none;" d="M 8.53125 0 L 8.53125 -9.625 L 7.375 -9.625 L 7.375 -1.75 L 2.34375 -9.625 L 1 -9.625 L 1 0 L 2.171875 0 L 2.171875 -7.796875 L 7.140625 0 Z M 8.53125 0 "/>
</symbol>
<symbol overflow="visible" id="glyph2-2">
<path style="stroke:none;" d="M 6.359375 0 L 6.359375 -6.921875 L 5.265625 -6.921875 L 5.265625 -3.109375 C 5.265625 -1.6875 4.53125 -0.765625 3.375 -0.765625 C 2.515625 -0.765625 1.953125 -1.296875 1.953125 -2.125 L 1.953125 -6.921875 L 0.859375 -6.921875 L 0.859375 -1.6875 C 0.859375 -0.546875 1.71875 0.203125 3.0625 0.203125 C 4.078125 0.203125 4.734375 -0.15625 5.375 -1.0625 L 5.375 0 Z M 6.359375 0 "/>
</symbol>
<symbol overflow="visible" id="glyph2-3">
<path style="stroke:none;" d="M 10.03125 0 L 10.03125 -5.1875 C 10.03125 -6.4375 9.34375 -7.109375 8.046875 -7.109375 C 7.125 -7.109375 6.578125 -6.84375 5.921875 -6.0625 C 5.515625 -6.796875 4.96875 -7.109375 4.0625 -7.109375 C 3.140625 -7.109375 2.53125 -6.765625 1.9375 -5.9375 L 1.9375 -6.921875 L 0.9375 -6.921875 L 0.9375 0 L 2.03125 0 L 2.03125 -4.34375 C 2.03125 -5.34375 2.765625 -6.15625 3.65625 -6.15625 C 4.46875 -6.15625 4.9375 -5.65625 4.9375 -4.765625 L 4.9375 0 L 6.03125 0 L 6.03125 -4.34375 C 6.03125 -5.34375 6.765625 -6.15625 7.671875 -6.15625 C 8.46875 -6.15625 8.9375 -5.640625 8.9375 -4.765625 L 8.9375 0 Z M 10.03125 0 "/>
</symbol>
<symbol overflow="visible" id="glyph2-4">
<path style="stroke:none;" d="M 6.90625 -3.53125 C 6.90625 -5.78125 5.765625 -7.109375 3.953125 -7.109375 C 3 -7.109375 2.328125 -6.765625 1.8125 -5.984375 L 1.8125 -9.625 L 0.71875 -9.625 L 0.71875 0 L 1.703125 0 L 1.703125 -0.984375 C 2.234375 -0.1875 2.9375 0.203125 3.890625 0.203125 C 5.71875 0.203125 6.90625 -1.296875 6.90625 -3.53125 Z M 5.75 -3.46875 C 5.75 -1.90625 4.9375 -0.828125 3.734375 -0.828125 C 2.578125 -0.828125 1.8125 -1.890625 1.8125 -3.453125 C 1.8125 -5.078125 2.578125 -6.140625 3.734375 -6.09375 C 4.96875 -6.09375 5.75 -5.015625 5.75 -3.46875 Z M 5.75 -3.46875 "/>
</symbol>
<symbol overflow="visible" id="glyph2-5">
<path style="stroke:none;" d="M 6.765625 -3.140625 C 6.765625 -4.140625 6.6875 -4.78125 6.5 -5.296875 C 6.046875 -6.4375 4.984375 -7.109375 3.703125 -7.109375 C 1.765625 -7.109375 0.53125 -5.6875 0.53125 -3.421875 C 0.53125 -1.15625 1.734375 0.203125 3.671875 0.203125 C 5.25 0.203125 6.34375 -0.703125 6.625 -2.09375 L 5.515625 -2.09375 C 5.21875 -1.1875 4.59375 -0.8125 3.703125 -0.8125 C 2.5625 -0.8125 1.703125 -1.5625 1.671875 -3.140625 Z M 5.59375 -4.125 C 5.59375 -4.125 5.59375 -4.0625 5.578125 -4.046875 L 1.703125 -4.046875 C 1.796875 -5.265625 2.578125 -6.09375 3.6875 -6.09375 C 4.765625 -6.09375 5.59375 -5.203125 5.59375 -4.125 Z M 5.59375 -4.125 "/>
</symbol>
<symbol overflow="visible" id="glyph2-6">
<path style="stroke:none;" d="M 4.234375 -5.953125 L 4.234375 -7.078125 C 4.046875 -7.109375 3.96875 -7.109375 3.8125 -7.109375 C 3.109375 -7.109375 2.5625 -6.6875 1.921875 -5.671875 L 1.921875 -6.921875 L 0.921875 -6.921875 L 0.921875 0 L 2.015625 0 L 2.015625 -3.59375 C 2.015625 -5.15625 2.53125 -5.921875 4.234375 -5.953125 Z M 4.234375 -5.953125 "/>
</symbol>
<symbol overflow="visible" id="glyph2-7">
<path style="stroke:none;" d=""/>
</symbol>
<symbol overflow="visible" id="glyph2-8">
<path style="stroke:none;" d="M 6.734375 -3.40625 C 6.734375 -5.796875 5.578125 -7.109375 3.59375 -7.109375 C 1.65625 -7.109375 0.46875 -5.78125 0.46875 -3.453125 C 0.46875 -1.140625 1.640625 0.203125 3.609375 0.203125 C 5.546875 0.203125 6.734375 -1.140625 6.734375 -3.40625 Z M 5.578125 -3.421875 C 5.578125 -1.796875 4.8125 -0.8125 3.609375 -0.8125 C 2.375 -0.8125 1.625 -1.78125 1.625 -3.453125 C 1.625 -5.125 2.375 -6.09375 3.609375 -6.09375 C 4.84375 -6.09375 5.578125 -5.140625 5.578125 -3.421875 Z M 5.578125 -3.421875 "/>
</symbol>
<symbol overflow="visible" id="glyph2-9">
<path style="stroke:none;" d="M 3.40625 -6.015625 L 3.40625 -6.921875 L 2.25 -6.921875 L 2.25 -8 C 2.25 -8.46875 2.515625 -8.703125 3.03125 -8.703125 C 3.109375 -8.703125 3.15625 -8.703125 3.40625 -8.6875 L 3.40625 -9.59375 C 3.15625 -9.65625 3.015625 -9.671875 2.78125 -9.671875 C 1.765625 -9.671875 1.15625 -9.078125 1.15625 -8.09375 L 1.15625 -6.921875 L 0.234375 -6.921875 L 0.234375 -6.015625 L 1.15625 -6.015625 L 1.15625 0 L 2.25 0 L 2.25 -6.015625 Z M 3.40625 -6.015625 "/>
</symbol>
<symbol overflow="visible" id="glyph2-10">
<path style="stroke:none;" d="M 8.140625 -6.796875 C 8.140625 -8.609375 7.078125 -9.625 5.171875 -9.625 L 1.203125 -9.625 L 1.203125 0 L 2.421875 0 L 2.421875 -4.078125 L 5.453125 -4.078125 C 7.03125 -4.078125 8.140625 -5.203125 8.140625 -6.796875 Z M 6.859375 -6.859375 C 6.859375 -5.796875 6.171875 -5.15625 4.984375 -5.15625 L 2.421875 -5.15625 L 2.421875 -8.546875 L 4.984375 -8.546875 C 6.171875 -8.546875 6.859375 -7.90625 6.859375 -6.859375 Z M 6.859375 -6.859375 "/>
</symbol>
<symbol overflow="visible" id="glyph2-11">
<path style="stroke:none;" d="M 3.359375 0 L 3.359375 -0.921875 C 3.203125 -0.890625 3.03125 -0.875 2.828125 -0.875 C 2.34375 -0.875 2.21875 -1 2.21875 -1.484375 L 2.21875 -6.015625 L 3.359375 -6.015625 L 3.359375 -6.921875 L 2.21875 -6.921875 L 2.21875 -8.8125 L 1.125 -8.8125 L 1.125 -6.921875 L 0.1875 -6.921875 L 0.1875 -6.015625 L 1.125 -6.015625 L 1.125 -1 C 1.125 -0.296875 1.59375 0.09375 2.453125 0.09375 C 2.71875 0.09375 2.984375 0.0625 3.359375 0 Z M 3.359375 0 "/>
</symbol>
<symbol overflow="visible" id="glyph2-12">
<path style="stroke:none;" d="M 6.0625 -1.9375 C 6.0625 -2.96875 5.484375 -3.484375 4.109375 -3.8125 L 3.046875 -4.0625 C 2.15625 -4.28125 1.765625 -4.5625 1.765625 -5.0625 C 1.765625 -5.6875 2.34375 -6.09375 3.234375 -6.09375 C 4.125 -6.09375 4.59375 -5.71875 4.625 -4.984375 L 5.78125 -4.984375 C 5.765625 -6.34375 4.875 -7.109375 3.28125 -7.109375 C 1.65625 -7.109375 0.625 -6.28125 0.625 -5 C 0.625 -3.921875 1.171875 -3.40625 2.8125 -3.015625 L 3.84375 -2.765625 C 4.609375 -2.578125 4.90625 -2.34375 4.90625 -1.84375 C 4.90625 -1.203125 4.265625 -0.8125 3.296875 -0.8125 C 2.3125 -0.8125 1.75 -1.0625 1.609375 -2.109375 L 0.453125 -2.109375 C 0.5 -0.515625 1.40625 0.203125 3.203125 0.203125 C 4.953125 0.203125 6.0625 -0.609375 6.0625 -1.9375 Z M 6.0625 -1.9375 "/>
</symbol>
<symbol overflow="visible" id="glyph2-13">
<path style="stroke:none;" d="M 12.265625 -9.625 L 10.890625 -9.625 L 9.125 -1.8125 L 6.9375 -9.625 L 5.609375 -9.625 L 3.46875 -1.8125 L 1.65625 -9.625 L 0.296875 -9.625 L 2.765625 0 L 4.109375 0 L 6.265625 -7.90625 L 8.46875 0 L 9.828125 0 Z M 12.265625 -9.625 "/>
</symbol>
<symbol overflow="visible" id="glyph2-14">
<path style="stroke:none;" d="M 2 0 L 2 -9.625 L 0.890625 -9.625 L 0.890625 0 Z M 2 0 "/>
</symbol>
<symbol overflow="visible" id="glyph2-15">
<path style="stroke:none;" d="M 6.53125 0 L 6.53125 -9.625 L 5.4375 -9.625 L 5.4375 -6.046875 C 4.984375 -6.75 4.234375 -7.109375 3.3125 -7.109375 C 1.515625 -7.109375 0.34375 -5.734375 0.34375 -3.53125 C 0.34375 -1.1875 1.484375 0.203125 3.359375 0.203125 C 4.296875 0.203125 4.96875 -0.15625 5.5625 -1.015625 L 5.5625 0 Z M 5.4375 -3.4375 C 5.4375 -1.828125 4.671875 -0.828125 3.515625 -0.828125 C 2.296875 -0.828125 1.484375 -1.84375 1.484375 -3.453125 C 1.484375 -5.0625 2.296875 -6.09375 3.5 -6.09375 C 4.6875 -6.09375 5.4375 -5.03125 5.4375 -3.4375 Z M 5.4375 -3.4375 "/>
</symbol>
<symbol overflow="visible" id="glyph2-16">
<path style="stroke:none;" d="M 9.34375 -6.921875 L 8.109375 -6.921875 L 6.734375 -1.53125 L 5.375 -6.921875 L 4.03125 -6.921875 L 2.703125 -1.53125 L 1.296875 -6.921875 L 0.078125 -6.921875 L 2.09375 0 L 3.328125 0 L 4.65625 -5.421875 L 6.0625 0 L 7.3125 0 Z M 9.34375 -6.921875 "/>
</symbol>
<symbol overflow="visible" id="glyph2-17">
<path style="stroke:none;" d="M 2.015625 0 L 2.015625 -6.921875 L 0.921875 -6.921875 L 0.921875 0 Z M 2.171875 -7.96875 L 2.171875 -9.328125 L 0.796875 -9.328125 L 0.796875 -7.96875 Z M 2.171875 -7.96875 "/>
</symbol>
</g>
<clipPath id="clip1">
  <path d="M 144.644531 0 L 431.355469 0 L 431.355469 288 L 144.644531 288 Z M 144.644531 0 "/>
</clipPath>
<clipPath id="clip2">
  <path d="M 222.636719 83.210938 L 307.675781 83.210938 L 307.675781 265.039062 L 222.636719 265.039062 Z M 222.636719 83.210938 "/>
</clipPath>
</defs>
<g id="surface1560">
<rect x="0" y="0" width="576" height="288" style="fill:rgb(94.901961%,94.901961%,94.901961%);fill-opacity:1;stroke:none;"/>
<g clip-path="url(#clip1)" clip-rule="nonzero">
<path style=" stroke:none;fill-rule:nonzero;fill:rgb(94.901961%,94.901961%,94.901961%);fill-opacity:1;" d="M 144.644531 288 L 431.355469 288 L 431.355469 0 L 144.644531 0 Z M 144.644531 288 "/>
</g>
<g clip-path="url(#clip2)" clip-rule="nonzero">
<path style=" stroke:none;fill-rule:nonzero;fill:rgb(0%,0%,0%);fill-opacity:1;" d="M 261.8125 264.902344 L 261.535156 264.835938 L 261.15625 264.746094 L 260.707031 264.632812 L 260.246094 264.511719 L 259.828125 264.398438 L 259.640625 264.347656 L 259.238281 264.238281 L 258.792969 264.121094 L 258.339844 264.011719 L 257.941406 263.917969 L 257.640625 263.855469 L 257.554688 263.839844 L 257.1875 263.785156 L 256.699219 263.730469 L 256.089844 263.675781 L 255.375 263.625 L 254.574219 263.578125 L 253.722656 263.539062 L 252.855469 263.507812 L 252.007812 263.484375 L 251.191406 263.472656 L 250.535156 263.46875 L 249.671875 263.457031 L 248.875 263.429688 L 248.121094 263.378906 L 247.398438 263.300781 L 246.714844 263.191406 L 246.070312 263.046875 L 245.457031 262.875 L 244.871094 262.675781 L 244.292969 262.449219 L 243.992188 262.320312 L 243.402344 262.046875 L 242.769531 261.71875 L 242.128906 261.363281 L 241.535156 261.003906 L 241.050781 260.679688 L 240.726562 260.425781 L 240.574219 260.253906 L 240.515625 260.089844 L 240.46875 259.84375 L 240.4375 259.449219 L 240.421875 258.886719 L 240.410156 258.136719 L 240.394531 256.757812 L 239.949219 257.683594 L 239.671875 258.214844 L 239.394531 258.632812 L 239.09375 258.929688 L 238.757812 259.105469 L 238.386719 259.160156 L 237.972656 259.113281 L 237.617188 259.023438 L 237.019531 258.8125 L 236.449219 258.53125 L 235.921875 258.1875 L 235.472656 257.792969 L 235.132812 257.378906 L 234.910156 256.96875 L 234.851562 256.8125 L 234.753906 256.417969 L 234.664062 255.898438 L 234.59375 255.289062 L 234.550781 254.660156 L 234.535156 254.0625 L 234.550781 253.320312 L 234.601562 252.210938 L 234.675781 250.890625 L 234.761719 249.585938 L 234.839844 248.542969 L 234.90625 247.929688 L 234.925781 247.824219 L 235.039062 247.570312 L 235.25 247.273438 L 235.570312 246.9375 L 235.988281 246.574219 L 236.484375 246.191406 L 236.765625 245.984375 L 237.03125 245.773438 L 237.261719 245.589844 L 237.414062 245.460938 L 237.472656 245.398438 L 237.484375 245.292969 L 237.480469 245.039062 L 237.464844 244.65625 L 237.4375 244.191406 L 237.398438 243.6875 L 237.320312 242.671875 L 237.257812 241.75 L 237.207031 240.832031 L 237.171875 239.855469 L 237.144531 238.765625 L 237.128906 237.523438 L 237.113281 236.066406 L 237.109375 235.625 L 237.105469 234.34375 L 237.101562 233.125 L 237.109375 231.894531 L 237.125 230.609375 L 237.152344 229.238281 L 237.1875 227.753906 L 237.238281 226.148438 L 237.296875 224.398438 L 237.367188 222.476562 L 237.453125 220.328125 L 237.453125 220.324219 L 237.558594 217.738281 L 237.667969 215.332031 L 237.785156 213.0625 L 237.914062 210.921875 L 238.050781 208.921875 L 238.195312 207.078125 L 238.351562 205.402344 L 238.515625 203.898438 L 238.6875 202.570312 L 238.867188 201.390625 L 239.054688 200.324219 L 239.195312 199.605469 L 239.292969 199.136719 L 238.976562 198.160156 L 238.859375 197.804688 L 238.699219 197.320312 L 238.511719 196.761719 L 238.332031 196.21875 L 238.171875 195.742188 L 237.890625 194.871094 L 237.625 193.980469 L 237.375 193.011719 L 237.125 191.914062 L 236.875 190.660156 L 236.621094 189.234375 L 236.367188 187.625 L 236.101562 185.824219 L 235.820312 183.816406 L 235.542969 181.761719 L 235.402344 180.71875 L 235.25 179.65625 L 235.082031 178.539062 L 234.894531 177.359375 L 234.6875 176.128906 L 234.46875 174.863281 L 234.238281 173.570312 L 233.992188 172.234375 L 233.921875 171.851562 L 233.695312 170.621094 L 233.480469 169.421875 L 233.28125 168.25 L 233.105469 167.152344 L 232.957031 166.167969 L 232.839844 165.328125 L 232.75 164.613281 L 232.746094 164.550781 L 232.597656 163.117188 L 232.488281 161.664062 L 232.414062 160.152344 L 232.382812 158.566406 L 232.394531 156.90625 L 232.453125 155.171875 L 232.554688 153.386719 L 232.703125 151.566406 L 232.886719 149.71875 L 233.109375 147.832031 L 233.371094 145.878906 L 233.410156 145.589844 L 233.574219 144.398438 L 233.710938 143.316406 L 233.820312 142.363281 L 233.894531 141.59375 L 233.933594 141.035156 L 233.9375 140.753906 L 233.925781 140.53125 L 233.878906 140.351562 L 233.785156 140.214844 L 233.628906 140.128906 L 233.414062 140.085938 L 233.136719 140.082031 L 232.796875 140.109375 L 232.761719 140.113281 L 232.347656 140.140625 L 231.9375 140.128906 L 231.511719 140.066406 L 231.0625 139.945312 L 230.589844 139.765625 L 230.082031 139.539062 L 229.953125 139.476562 L 229.351562 139.167969 L 228.792969 138.839844 L 228.261719 138.476562 L 227.769531 138.078125 L 227.324219 137.648438 L 226.925781 137.195312 L 226.554688 136.710938 L 226.503906 136.640625 L 226.03125 135.945312 L 225.632812 135.265625 L 225.300781 134.570312 L 225.039062 133.839844 L 224.847656 133.0625 L 224.71875 132.242188 L 224.648438 131.359375 L 224.617188 130.464844 L 224.609375 129.664062 L 224.628906 128.859375 L 224.683594 127.996094 L 224.773438 127.046875 L 224.90625 126.007812 L 225.074219 124.855469 L 225.132812 124.449219 L 225.328125 123.164062 L 225.46875 122.128906 L 225.550781 121.230469 L 225.570312 120.375 L 225.535156 119.472656 L 225.449219 118.433594 L 225.359375 117.488281 L 225.289062 116.683594 L 225.234375 115.964844 L 225.199219 115.230469 L 225.179688 114.414062 L 225.171875 113.453125 L 225.171875 112.910156 L 225.179688 111.644531 L 225.207031 110.390625 L 225.265625 109.132812 L 225.351562 107.886719 L 225.460938 106.695312 L 225.59375 105.589844 L 225.746094 104.570312 L 225.871094 103.847656 L 226.042969 102.972656 L 226.261719 102.015625 L 226.519531 100.992188 L 226.804688 99.972656 L 227.09375 99.027344 L 227.367188 98.214844 L 227.585938 97.632812 L 227.777344 97.152344 L 225.8125 93.054688 L 225.253906 91.890625 L 224.773438 90.863281 L 224.351562 89.957031 L 224 89.167969 L 223.71875 88.507812 L 223.5 87.953125 L 223.320312 87.472656 L 223.300781 87.421875 L 223.125 86.910156 L 222.964844 86.40625 L 222.828125 85.949219 L 222.738281 85.589844 L 222.695312 85.355469 L 222.660156 84.953125 L 222.648438 84.464844 L 222.664062 83.96875 L 222.699219 83.566406 L 222.75 83.328125 L 222.785156 83.253906 L 222.820312 83.21875 L 222.871094 83.226562 L 222.933594 83.28125 L 223.011719 83.375 L 223.242188 83.621094 L 223.574219 83.925781 L 223.984375 84.261719 L 224.417969 84.585938 L 224.820312 84.855469 L 224.949219 84.9375 L 225.296875 85.136719 L 225.6875 85.339844 L 226.144531 85.546875 L 226.6875 85.769531 L 227.320312 86.003906 L 228.035156 86.25 L 228.828125 86.511719 L 229.703125 86.78125 L 230.429688 87.003906 L 231.410156 87.292969 L 232.289062 87.550781 L 233.085938 87.773438 L 233.8125 87.96875 L 234.472656 88.132812 L 235.074219 88.269531 L 235.621094 88.378906 L 236.136719 88.464844 L 236.644531 88.542969 L 236.882812 88.574219 L 237.621094 88.675781 L 238.21875 88.757812 L 238.707031 88.835938 L 239.097656 88.910156 L 239.417969 88.984375 L 239.714844 89.0625 L 239.828125 89.097656 L 240.605469 89.382812 L 241.414062 89.789062 L 242.257812 90.320312 L 243.121094 90.964844 L 243.988281 91.722656 L 244.832031 92.566406 L 245.621094 93.46875 L 246.339844 94.402344 L 246.972656 95.34375 L 247.503906 96.28125 L 247.941406 97.207031 L 248.011719 97.371094 L 248.316406 98.148438 L 248.613281 98.96875 L 248.914062 99.882812 L 249.222656 100.921875 L 249.542969 102.113281 L 249.882812 103.453125 L 250.234375 104.949219 L 250.601562 106.59375 L 250.996094 108.414062 L 251.191406 109.335938 L 251.652344 111.53125 L 252.054688 113.5 L 252.402344 115.296875 L 252.699219 116.949219 L 252.945312 118.46875 L 253.140625 119.867188 L 253.285156 121.160156 L 253.386719 122.375 L 253.457031 123.546875 L 253.5 124.726562 L 253.511719 125.257812 L 253.53125 125.976562 L 253.554688 126.726562 L 253.582031 127.421875 L 253.609375 127.953125 L 253.632812 128.269531 L 253.71875 128.917969 L 253.863281 129.628906 L 254.078125 130.421875 L 254.363281 131.289062 L 254.703125 132.195312 L 255.09375 133.132812 L 255.269531 133.539062 L 255.460938 133.980469 L 255.714844 134.578125 L 256.015625 135.292969 L 256.320312 136.023438 L 256.597656 136.695312 L 256.714844 136.988281 L 256.980469 137.632812 L 257.273438 138.339844 L 257.570312 139.042969 L 257.828125 139.644531 L 258.019531 140.082031 L 258.058594 140.171875 L 258.34375 140.769531 L 258.6875 141.445312 L 259.046875 142.113281 L 259.359375 142.65625 L 259.574219 142.988281 L 259.621094 143.050781 L 259.703125 143.097656 L 259.867188 143.140625 L 260.113281 143.171875 L 260.414062 143.191406 L 260.75 143.195312 L 261.527344 143.234375 L 262.289062 143.359375 L 263.058594 143.589844 L 263.835938 143.9375 L 264.632812 144.414062 L 265.441406 145.027344 L 266.261719 145.773438 L 267.085938 146.648438 L 267.914062 147.640625 L 268.746094 148.742188 L 269.589844 149.953125 L 270.441406 151.253906 L 271.011719 152.167969 L 271.527344 153.03125 L 272.007812 153.910156 L 272.464844 154.855469 L 272.914062 155.90625 L 273.363281 157.097656 L 273.824219 158.460938 L 274.304688 160.007812 L 274.8125 161.765625 L 275.363281 163.75 L 275.976562 166.007812 L 276.28125 167.148438 L 276.941406 169.628906 L 277.542969 171.910156 L 278.09375 174.035156 L 278.597656 176.011719 L 279.054688 177.847656 L 279.460938 179.527344 L 279.8125 181.050781 L 280.117188 182.414062 L 280.367188 183.636719 L 280.582031 184.738281 L 280.761719 185.746094 L 280.90625 186.648438 L 281.101562 187.941406 L 281.289062 189.3125 L 281.472656 190.800781 L 281.65625 192.414062 L 281.832031 194.164062 L 282.003906 196.03125 L 282.171875 198 L 282.324219 200.042969 L 282.46875 202.136719 L 282.601562 204.265625 L 282.726562 206.429688 L 282.839844 208.65625 L 282.867188 209.183594 L 282.957031 211.027344 L 283.03125 212.703125 L 283.101562 214.261719 L 283.15625 215.722656 L 283.203125 217.097656 L 283.238281 218.394531 L 283.261719 219.621094 L 283.28125 220.8125 L 283.292969 222.019531 L 283.296875 222.390625 L 283.304688 223.761719 L 283.308594 224.9375 L 283.304688 225.988281 L 283.289062 226.957031 L 283.265625 227.878906 L 283.230469 228.816406 L 283.191406 229.792969 L 283.136719 231.199219 L 283.09375 232.644531 L 283.066406 234.105469 L 283.050781 235.527344 L 283.054688 236.824219 L 283.078125 237.933594 L 283.113281 238.816406 L 283.15625 239.445312 L 283.269531 240.429688 L 283.425781 241.410156 L 283.632812 242.378906 L 283.882812 243.304688 L 284.160156 244.136719 L 284.460938 244.867188 L 284.636719 245.234375 L 284.972656 245.855469 L 285.351562 246.425781 L 285.777344 246.953125 L 286.253906 247.417969 L 286.761719 247.8125 L 287.285156 248.128906 L 287.804688 248.375 L 288.15625 248.480469 L 288.609375 248.554688 L 289.164062 248.589844 L 289.777344 248.585938 L 290.410156 248.546875 L 291.007812 248.46875 L 291.546875 248.359375 L 291.71875 248.3125 L 292.359375 248.125 L 293.066406 247.902344 L 293.828125 247.640625 L 294.625 247.351562 L 295.414062 247.046875 L 296.15625 246.742188 L 296.816406 246.457031 L 297.367188 246.199219 L 297.804688 245.96875 L 297.917969 245.902344 L 298.691406 245.394531 L 299.425781 244.804688 L 300.125 244.117188 L 300.769531 243.335938 L 301.34375 242.488281 L 301.824219 241.597656 L 302.199219 240.691406 L 302.476562 239.78125 L 302.652344 238.949219 L 302.75 238.308594 L 302.828125 237.652344 L 302.890625 236.882812 L 302.933594 235.929688 L 302.960938 234.75 L 302.980469 233.308594 L 302.988281 232.070312 L 302.996094 230.4375 L 302.992188 228.835938 L 302.972656 227.242188 L 302.941406 225.65625 L 302.898438 224.105469 L 302.839844 222.613281 L 302.769531 221.207031 L 302.6875 219.890625 L 302.597656 218.648438 L 302.53125 217.878906 L 302.46875 217.089844 L 302.429688 216.410156 L 302.417969 215.847656 L 302.4375 215.410156 L 302.476562 215.074219 L 302.5 214.945312 L 302.523438 214.839844 L 302.550781 214.765625 L 302.585938 214.71875 L 302.621094 214.703125 L 302.667969 214.714844 L 302.71875 214.753906 L 302.777344 214.816406 L 302.785156 214.828125 L 302.996094 215.132812 L 303.355469 215.738281 L 303.832031 216.589844 L 304.375 217.59375 L 304.921875 218.636719 L 305.410156 219.59375 L 305.792969 220.378906 L 305.972656 220.769531 L 306.300781 221.578125 L 306.597656 222.453125 L 306.863281 223.421875 L 307.089844 224.496094 L 307.277344 225.65625 L 307.425781 226.878906 L 307.535156 228.164062 L 307.589844 229.039062 L 307.632812 230.066406 L 307.652344 231.417969 L 307.65625 233.0625 L 307.644531 234.9375 L 307.617188 236.945312 L 307.570312 238.976562 L 307.515625 240.914062 L 307.449219 242.65625 L 307.375 244.125 L 307.296875 245.273438 L 307.261719 245.65625 L 307.144531 246.675781 L 306.988281 247.726562 L 306.789062 248.832031 L 306.542969 249.976562 L 306.253906 251.125 L 305.9375 252.25 L 305.597656 253.332031 L 305.25 254.335938 L 304.878906 255.335938 L 304.480469 256.3125 L 304.054688 257.265625 L 303.613281 258.152344 L 303.183594 258.929688 L 302.785156 259.566406 L 302.417969 260.054688 L 302.238281 260.257812 L 301.871094 260.617188 L 301.472656 260.929688 L 301.019531 261.195312 L 300.503906 261.417969 L 299.921875 261.589844 L 299.285156 261.714844 L 298.589844 261.804688 L 298.1875 261.839844 L 297.808594 261.871094 L 297.339844 261.910156 L 296.785156 261.953125 L 295.582031 262.054688 L 295.023438 262.101562 L 294.523438 262.144531 L 294.441406 262.148438 L 293.261719 262.242188 L 292.128906 262.316406 L 291.03125 262.371094 L 289.957031 262.40625 L 288.914062 262.414062 L 287.902344 262.398438 L 286.9375 262.355469 L 286.023438 262.292969 L 285.167969 262.203125 L 284.367188 262.089844 L 283.625 261.957031 L 282.921875 261.804688 L 282.289062 261.648438 L 281.617188 261.445312 L 280.917969 261.191406 L 280.1875 260.886719 L 279.441406 260.535156 L 278.707031 260.144531 L 278.011719 259.730469 L 277.382812 259.3125 L 276.828125 258.894531 L 276.351562 258.488281 L 276.230469 258.371094 L 276.058594 258.210938 L 275.890625 258.054688 L 275.746094 257.929688 L 275.644531 257.847656 L 275.597656 257.820312 L 275.550781 257.867188 L 275.4375 258 L 275.273438 258.210938 L 275.085938 258.464844 L 274.886719 258.734375 L 274.300781 259.507812 L 273.671875 260.253906 L 272.984375 260.972656 L 272.238281 261.660156 L 271.445312 262.3125 L 270.617188 262.90625 L 269.773438 263.429688 L 268.933594 263.878906 L 268.105469 264.25 L 267.292969 264.542969 L 266.492188 264.765625 L 266.410156 264.785156 L 265.9375 264.875 L 265.367188 264.945312 L 264.714844 265 L 264.023438 265.027344 L 263.34375 265.03125 L 262.726562 265.011719 L 262.203125 264.96875 Z M 246.523438 247.265625 L 246.875 247.15625 L 247.285156 247.074219 L 247.761719 247.015625 L 248.292969 246.992188 L 248.851562 247 L 249.414062 247.039062 L 249.855469 247.085938 L 250.347656 247.125 L 250.761719 247.09375 L 251.085938 246.972656 L 251.320312 246.765625 L 251.484375 246.484375 L 251.539062 246.339844 L 251.578125 246.160156 L 251.59375 245.890625 L 251.589844 245.496094 L 251.578125 244.953125 L 251.570312 244.464844 L 251.570312 243.792969 L 251.582031 242.984375 L 251.601562 242.15625 L 251.625 241.390625 L 251.660156 240.234375 L 251.675781 239.253906 L 251.660156 238.4375 L 251.617188 237.804688 L 251.546875 237.320312 L 251.53125 237.226562 L 251.46875 237.011719 L 251.339844 236.65625 L 251.15625 236.195312 L 250.949219 235.695312 L 250.738281 235.21875 L 250.359375 234.363281 L 249.996094 233.484375 L 249.632812 232.542969 L 249.265625 231.503906 L 248.882812 230.34375 L 248.492188 229.0625 L 248.085938 227.660156 L 247.664062 226.128906 L 247.21875 224.460938 L 246.820312 222.933594 L 246.574219 221.984375 L 246.335938 221.09375 L 246.132812 220.363281 L 246.003906 219.90625 L 245.953125 219.765625 L 245.929688 219.917969 L 245.910156 220.355469 L 245.890625 221.117188 L 245.867188 222.230469 L 245.847656 223.679688 L 245.824219 225.414062 L 245.804688 227.386719 L 245.78125 229.589844 L 245.777344 230.167969 L 245.753906 232.433594 L 245.726562 234.515625 L 245.691406 236.460938 L 245.644531 238.269531 L 245.589844 239.933594 L 245.527344 241.4375 L 245.453125 242.78125 L 245.371094 243.96875 L 245.28125 245.03125 L 245.179688 246.007812 L 245.152344 246.261719 L 245.109375 246.648438 L 245.066406 247.019531 L 245.035156 247.335938 L 245.011719 247.542969 L 245.003906 247.628906 L 245.078125 247.65625 L 245.308594 247.628906 L 245.660156 247.542969 L 246.082031 247.417969 L 246.519531 247.265625 Z M 246.523438 247.265625 "/>
</g>
<path style=" stroke:none;fill-rule:nonzero;fill:rgb(0.392157%,0.784314%,0.784314%);fill-opacity:1;" d="M 387.222656 261.601562 L 386.964844 261.6875 L 386.503906 261.9375 L 385.890625 262.304688 L 385.207031 262.734375 L 384.550781 263.144531 L 384.003906 263.480469 L 383.804688 263.597656 L 383.363281 263.746094 L 382.816406 263.757812 L 382.210938 263.59375 L 381.613281 263.21875 L 381.105469 262.632812 L 380.753906 261.84375 L 380.597656 260.863281 L 380.59375 260.488281 L 380.722656 259.078125 L 381.019531 257.457031 L 381.441406 255.730469 L 381.910156 254.070312 L 382.332031 252.675781 L 382.644531 251.664062 L 382.757812 251.277344 L 382.847656 250.378906 L 382.890625 248.597656 L 382.882812 246.117188 L 382.835938 243.207031 L 382.753906 240.21875 L 382.652344 237.515625 L 382.535156 235.382812 L 382.417969 234.019531 L 382.40625 233.953125 L 382.257812 232.90625 L 382.023438 231.480469 L 381.699219 229.722656 L 381.28125 227.746094 L 380.777344 225.695312 L 380.203125 223.742188 L 379.574219 222.007812 L 378.898438 220.5625 L 378.746094 220.296875 L 378.195312 219.273438 L 377.492188 217.816406 L 376.648438 215.953125 L 375.6875 213.738281 L 374.636719 211.242188 L 373.546875 208.5625 L 372.457031 205.8125 L 371.417969 203.113281 L 370.46875 200.570312 L 369.652344 198.277344 L 368.988281 196.304688 L 368.496094 194.695312 L 368.277344 193.875 L 368.007812 192.554688 L 367.742188 191.019531 L 367.460938 189.3125 L 367.136719 187.496094 L 366.746094 185.648438 L 366.273438 183.871094 L 365.707031 182.265625 L 365.03125 180.925781 L 364.242188 179.929688 L 363.328125 179.339844 L 362.285156 179.199219 L 361.082031 179.546875 L 360.847656 179.664062 L 359.695312 180.316406 L 358.472656 181.089844 L 357.171875 181.96875 L 355.804688 182.933594 L 354.390625 183.964844 L 352.953125 185.027344 L 351.519531 186.085938 L 350.125 187.101562 L 348.804688 188.039062 L 347.582031 188.863281 L 346.484375 189.542969 L 345.519531 190.058594 L 344.703125 190.398438 L 344.03125 190.542969 L 343.789062 190.542969 L 342.949219 190.617188 L 342.050781 190.875 L 341.105469 191.28125 L 340.140625 191.789062 L 339.199219 192.328125 L 338.324219 192.839844 L 337.558594 193.253906 L 336.929688 193.519531 L 336.449219 193.59375 L 336.253906 193.542969 L 335.984375 193.433594 L 335.734375 193.402344 L 335.503906 193.484375 L 335.289062 193.714844 L 335.097656 194.132812 L 334.929688 194.753906 L 334.78125 195.601562 L 334.660156 196.679688 L 334.558594 197.984375 L 334.480469 199.527344 L 334.410156 201.328125 L 334.40625 201.535156 L 334.351562 203.578125 L 334.28125 206.40625 L 334.1875 209.941406 L 334.078125 214.078125 L 333.957031 218.671875 L 333.824219 223.535156 L 333.683594 228.457031 L 333.539062 233.21875 L 333.398438 237.601562 L 333.265625 241.429688 L 333.140625 244.546875 L 333.03125 246.851562 L 332.933594 248.253906 L 332.90625 248.5 L 332.757812 249.933594 L 332.582031 252.09375 L 332.375 254.78125 L 332.148438 257.699219 L 331.90625 260.472656 L 331.671875 262.753906 L 331.445312 264.261719 L 331.238281 264.820312 L 331.230469 264.820312 L 330.851562 264.808594 L 330.144531 264.757812 L 329.191406 264.648438 L 328.113281 264.457031 L 327.042969 264.171875 L 326.140625 263.78125 L 325.519531 263.292969 L 325.269531 262.691406 L 325.300781 262.375 L 325.492188 261.179688 L 325.636719 259.589844 L 325.789062 257.769531 L 325.984375 255.976562 L 326.265625 254.46875 L 326.667969 253.421875 L 326.765625 253.273438 L 327.179688 252.6875 L 327.527344 252.105469 L 327.8125 251.5 L 328.027344 250.855469 L 328.167969 250.167969 L 328.242188 249.429688 L 328.265625 248.617188 L 328.265625 248.609375 L 328.253906 247.613281 L 328.226562 245.5625 L 328.175781 242.558594 L 328.113281 238.714844 L 328.039062 234.1875 L 327.949219 229.15625 L 327.859375 223.855469 L 327.765625 218.523438 L 327.675781 213.40625 L 327.59375 208.722656 L 327.519531 204.664062 L 327.460938 201.382812 L 327.417969 198.996094 L 327.394531 197.757812 L 327.34375 195.882812 L 327.261719 193.667969 L 327.132812 191.164062 L 326.960938 188.480469 L 326.75 185.785156 L 326.496094 183.253906 L 326.214844 181.03125 L 325.902344 179.207031 L 325.648438 178.109375 L 325.269531 176.6875 L 324.871094 175.136719 L 324.445312 173.433594 L 324.007812 171.597656 L 323.574219 169.6875 L 323.15625 167.769531 L 322.765625 165.886719 L 322.402344 164.039062 L 322.332031 163.675781 L 321.976562 161.734375 L 321.683594 159.929688 L 321.445312 158.15625 L 321.273438 156.359375 L 321.171875 154.507812 L 321.140625 152.574219 L 321.160156 150.480469 L 321.183594 149.574219 L 321.167969 147.542969 L 321.035156 145.070312 L 320.800781 142.230469 L 320.488281 139.152344 L 320.121094 136.015625 L 319.742188 133.035156 L 319.386719 130.398438 L 319.078125 128.261719 L 318.84375 126.707031 L 318.742188 126.039062 L 318.566406 124.84375 L 318.289062 122.871094 L 317.917969 120.230469 L 317.476562 117.085938 L 316.992188 113.660156 L 316.492188 110.210938 L 316.015625 107.007812 L 315.585938 104.285156 L 315.230469 102.214844 L 314.960938 100.925781 L 314.902344 100.722656 L 314.574219 100.179688 L 314.027344 99.867188 L 313.285156 99.714844 L 312.382812 99.652344 L 311.386719 99.609375 L 310.367188 99.503906 L 309.390625 99.265625 L 308.515625 98.828125 L 307.78125 98.128906 L 307.507812 97.722656 L 306.925781 96.75 L 306.375 95.808594 L 305.851562 94.808594 L 305.363281 93.679688 L 304.925781 92.363281 L 304.550781 90.824219 L 304.246094 89.035156 L 304.011719 86.964844 L 303.84375 84.558594 L 303.808594 83.84375 L 303.726562 82.054688 L 303.652344 80.554688 L 303.59375 79.304688 L 303.554688 78.28125 L 303.542969 77.464844 L 303.5625 76.839844 L 303.613281 76.378906 L 303.699219 76.054688 L 303.828125 75.828125 L 303.992188 75.660156 L 304.195312 75.519531 L 304.441406 75.363281 L 304.683594 75.1875 L 305.257812 74.820312 L 305.996094 74.449219 L 306.851562 74.066406 L 307.75 73.664062 L 308.601562 73.246094 L 309.3125 72.816406 L 309.816406 72.375 L 310.078125 71.910156 L 310.089844 71.855469 L 310.234375 71.105469 L 310.496094 69.8125 L 310.882812 68.0625 L 311.371094 66.019531 L 311.929688 63.898438 L 312.523438 61.925781 L 313.121094 60.269531 L 313.707031 59.050781 L 313.753906 58.972656 L 313.878906 58.753906 L 313.992188 58.4375 L 314.085938 58.046875 L 314.160156 57.625 L 314.207031 57.199219 L 314.316406 55.789062 L 314.421875 54.15625 L 314.519531 52.28125 L 314.605469 50.207031 L 314.675781 48.03125 L 314.738281 45.84375 L 314.785156 43.675781 L 314.796875 42.878906 L 314.859375 40.722656 L 314.972656 39.019531 L 315.128906 37.746094 L 315.328125 36.871094 L 315.566406 36.375 L 315.84375 36.234375 L 316.148438 36.421875 L 316.480469 36.90625 L 316.828125 37.644531 L 317.183594 38.597656 L 317.542969 39.714844 L 317.890625 40.945312 L 318.226562 42.238281 L 318.542969 43.546875 L 318.835938 44.832031 L 319.101562 46.050781 L 319.332031 47.175781 L 319.472656 47.875 L 319.664062 48.792969 L 319.863281 49.726562 L 320.0625 50.597656 L 320.234375 51.289062 L 320.378906 51.761719 L 320.777344 52.980469 L 321.285156 54.566406 L 321.882812 56.421875 L 322.515625 58.398438 L 323.117188 60.292969 L 323.636719 61.917969 L 324.019531 63.125 L 324.246094 63.839844 L 324.253906 63.863281 L 324.792969 65.570312 L 325.332031 67.261719 L 325.875 68.972656 L 326.414062 70.683594 L 326.925781 72.363281 L 327.402344 73.964844 L 327.832031 75.476562 L 328.214844 76.910156 L 328.367188 77.519531 L 328.660156 78.71875 L 329.058594 80.558594 L 329.5625 82.960938 L 330.167969 85.8125 L 330.855469 88.953125 L 331.605469 92.191406 L 332.386719 95.324219 L 333.171875 98.15625 L 333.9375 100.519531 L 334.660156 102.289062 L 335.339844 103.371094 L 335.625 103.609375 L 336.160156 104.003906 L 336.789062 104.613281 L 337.523438 105.417969 L 338.378906 106.394531 L 339.351562 107.511719 L 340.449219 108.730469 L 341.667969 110.007812 L 342.992188 111.296875 L 344.40625 112.539062 L 345.902344 113.695312 L 347.460938 114.71875 L 349.074219 115.566406 L 350.726562 116.214844 L 352.425781 116.640625 L 354.183594 116.816406 L 354.640625 116.820312 L 356.710938 116.769531 L 358.570312 116.664062 L 360.246094 116.515625 L 361.746094 116.332031 L 363.070312 116.128906 L 364.214844 115.921875 L 365.179688 115.71875 L 365.972656 115.542969 L 366.601562 115.402344 L 367.089844 115.3125 L 367.464844 115.28125 L 367.753906 115.320312 L 367.894531 115.378906 L 368.144531 115.492188 L 368.347656 115.53125 L 368.507812 115.480469 L 368.632812 115.328125 L 368.730469 115.0625 L 368.800781 114.6875 L 368.851562 114.195312 L 368.894531 113.605469 L 368.9375 112.914062 L 368.988281 112.125 L 369.011719 111.824219 L 369.054688 110.769531 L 369.085938 109.109375 L 369.09375 106.859375 L 369.082031 104.042969 L 369.03125 100.734375 L 368.945312 97.027344 L 368.8125 93.046875 L 368.636719 88.9375 L 368.414062 84.824219 L 368.140625 80.8125 L 367.820312 76.980469 L 367.441406 73.34375 L 367.371094 72.746094 L 366.90625 69.183594 L 366.347656 65.519531 L 365.722656 61.753906 L 365.046875 57.9375 L 364.359375 54.160156 L 363.691406 50.527344 L 363.09375 47.160156 L 362.597656 44.164062 L 362.234375 41.621094 L 362.027344 39.582031 L 362 38.074219 L 362.164062 37.101562 L 362.207031 36.996094 L 362.566406 36.679688 L 363.023438 37.011719 L 363.582031 37.976562 L 364.238281 39.542969 L 364.972656 41.664062 L 365.773438 44.261719 L 366.613281 47.222656 L 367.464844 50.425781 L 368.304688 53.753906 L 369.117188 57.101562 L 369.890625 60.414062 L 370.476562 62.972656 L 371.089844 65.929688 L 371.675781 69.21875 L 372.226562 72.832031 L 372.75 76.730469 L 373.238281 80.847656 L 373.679688 85.089844 L 374.066406 89.339844 L 374.394531 93.484375 L 374.660156 97.402344 L 374.855469 101 L 374.984375 104.199219 L 375.046875 106.953125 L 375.046875 109.242188 L 375.011719 110.492188 L 374.933594 112.871094 L 374.863281 115.785156 L 374.8125 119.179688 L 374.789062 122.933594 L 374.800781 126.894531 L 374.851562 130.859375 L 374.953125 134.621094 L 375.101562 137.988281 L 375.300781 140.800781 L 375.554688 142.949219 L 375.863281 144.371094 L 375.988281 144.691406 L 376.523438 145.882812 L 377.089844 147.375 L 377.675781 149.136719 L 378.242188 151.074219 L 378.742188 153.058594 L 379.140625 154.957031 L 379.410156 156.664062 L 379.539062 158.128906 L 379.546875 158.347656 L 379.574219 159.734375 L 379.613281 161.957031 L 379.660156 164.925781 L 379.71875 168.5 L 379.789062 172.484375 L 379.875 176.648438 L 379.972656 180.738281 L 380.082031 184.5 L 380.203125 187.734375 L 380.332031 190.28125 L 380.472656 192.03125 L 380.523438 192.429688 L 380.757812 194.203125 L 380.988281 196.367188 L 381.234375 198.761719 L 381.503906 201.128906 L 381.800781 203.183594 L 382.132812 204.671875 L 382.5 205.441406 L 382.6875 205.53125 L 383.046875 205.8125 L 383.355469 206.636719 L 383.617188 207.960938 L 383.839844 209.699219 L 384.015625 211.699219 L 384.15625 213.792969 L 384.261719 215.832031 L 384.351562 217.730469 L 384.359375 217.964844 L 384.460938 219.628906 L 384.632812 221.742188 L 384.863281 224.273438 L 385.148438 227.140625 L 385.472656 230.230469 L 385.816406 233.378906 L 386.15625 236.425781 L 386.476562 239.242188 L 386.761719 241.726562 L 387.007812 243.835938 L 387.046875 244.171875 L 387.28125 246.660156 L 387.4375 249.433594 L 387.527344 252.367188 L 387.550781 255.242188 L 387.519531 257.800781 L 387.449219 259.808594 L 387.347656 261.101562 L 387.234375 261.597656 Z M 387.222656 261.601562 "/>
<path style="fill:none;stroke-width:1.066978;stroke-linecap:round;stroke-linejoin:round;stroke:rgb(20%,20%,20%);stroke-opacity:1;stroke-miterlimit:10;" d="M 184.792969 265.042969 L 425.875 265.042969 L 425.875 23.960938 L 184.792969 23.960938 Z M 184.792969 265.042969 "/>
<g style="fill:rgb(30.196078%,30.196078%,30.196078%);fill-opacity:1;">
  <use xlink:href="#glyph0-1" x="174.863281" y="267.645508"/>
</g>
<g style="fill:rgb(30.196078%,30.196078%,30.196078%);fill-opacity:1;">
  <use xlink:href="#glyph0-2" x="164.863281" y="218.895508"/>
  <use xlink:href="#glyph0-1" x="169.863281" y="218.895508"/>
  <use xlink:href="#glyph0-1" x="174.863281" y="218.895508"/>
</g>
<g style="fill:rgb(30.196078%,30.196078%,30.196078%);fill-opacity:1;">
  <use xlink:href="#glyph0-3" x="164.863281" y="170.149414"/>
  <use xlink:href="#glyph0-1" x="169.863281" y="170.149414"/>
  <use xlink:href="#glyph0-1" x="174.863281" y="170.149414"/>
</g>
<g style="fill:rgb(30.196078%,30.196078%,30.196078%);fill-opacity:1;">
  <use xlink:href="#glyph0-4" x="164.863281" y="121.399414"/>
  <use xlink:href="#glyph0-1" x="169.863281" y="121.399414"/>
  <use xlink:href="#glyph0-1" x="174.863281" y="121.399414"/>
</g>
<g style="fill:rgb(30.196078%,30.196078%,30.196078%);fill-opacity:1;">
  <use xlink:href="#glyph0-5" x="164.863281" y="72.65332"/>
  <use xlink:href="#glyph0-1" x="169.863281" y="72.65332"/>
  <use xlink:href="#glyph0-1" x="174.863281" y="72.65332"/>
</g>
<path style="fill:none;stroke-width:1.066978;stroke-linecap:butt;stroke-linejoin:round;stroke:rgb(20%,20%,20%);stroke-opacity:1;stroke-miterlimit:10;" d="M 182.054688 265.042969 L 184.792969 265.042969 "/>
<path style="fill:none;stroke-width:1.066978;stroke-linecap:butt;stroke-linejoin:round;stroke:rgb(20%,20%,20%);stroke-opacity:1;stroke-miterlimit:10;" d="M 182.054688 216.292969 L 184.792969 216.292969 "/>
<path style="fill:none;stroke-width:1.066978;stroke-linecap:butt;stroke-linejoin:round;stroke:rgb(20%,20%,20%);stroke-opacity:1;stroke-miterlimit:10;" d="M 182.054688 167.546875 L 184.792969 167.546875 "/>
<path style="fill:none;stroke-width:1.066978;stroke-linecap:butt;stroke-linejoin:round;stroke:rgb(20%,20%,20%);stroke-opacity:1;stroke-miterlimit:10;" d="M 182.054688 118.796875 L 184.792969 118.796875 "/>
<path style="fill:none;stroke-width:1.066978;stroke-linecap:butt;stroke-linejoin:round;stroke:rgb(20%,20%,20%);stroke-opacity:1;stroke-miterlimit:10;" d="M 182.054688 70.050781 L 184.792969 70.050781 "/>
<g style="fill:rgb(0%,0%,0%);fill-opacity:1;">
  <use xlink:href="#glyph1-1" x="158.75293" y="161.5"/>
  <use xlink:href="#glyph1-2" x="158.75293" y="152.5"/>
  <use xlink:href="#glyph1-3" x="158.75293" y="150.5"/>
  <use xlink:href="#glyph1-3" x="158.75293" y="148.5"/>
  <use xlink:href="#glyph1-2" x="158.75293" y="146.5"/>
  <use xlink:href="#glyph1-4" x="158.75293" y="144.5"/>
  <use xlink:href="#glyph1-5" x="158.75293" y="138.5"/>
  <use xlink:href="#glyph1-6" x="158.75293" y="132.5"/>
</g>
<g style="fill:rgb(0%,0%,0%);fill-opacity:1;">
  <use xlink:href="#glyph2-1" x="184.792969" y="14.632812"/>
  <use xlink:href="#glyph2-2" x="194.792969" y="14.632812"/>
  <use xlink:href="#glyph2-3" x="201.792969" y="14.632812"/>
  <use xlink:href="#glyph2-4" x="212.792969" y="14.632812"/>
  <use xlink:href="#glyph2-5" x="219.792969" y="14.632812"/>
  <use xlink:href="#glyph2-6" x="226.792969" y="14.632812"/>
  <use xlink:href="#glyph2-7" x="230.792969" y="14.632812"/>
  <use xlink:href="#glyph2-8" x="234.792969" y="14.632812"/>
  <use xlink:href="#glyph2-9" x="241.792969" y="14.632812"/>
  <use xlink:href="#glyph2-7" x="245.792969" y="14.632812"/>
  <use xlink:href="#glyph2-10" x="249.792969" y="14.632812"/>
  <use xlink:href="#glyph2-5" x="257.792969" y="14.632812"/>
  <use xlink:href="#glyph2-11" x="264.792969" y="14.632812"/>
  <use xlink:href="#glyph2-12" x="268.792969" y="14.632812"/>
  <use xlink:href="#glyph2-7" x="275.792969" y="14.632812"/>
  <use xlink:href="#glyph2-13" x="279.792969" y="14.632812"/>
  <use xlink:href="#glyph2-8" x="291.792969" y="14.632812"/>
  <use xlink:href="#glyph2-6" x="298.792969" y="14.632812"/>
  <use xlink:href="#glyph2-14" x="302.792969" y="14.632812"/>
  <use xlink:href="#glyph2-15" x="305.792969" y="14.632812"/>
  <use xlink:href="#glyph2-16" x="312.792969" y="14.632812"/>
  <use xlink:href="#glyph2-17" x="322.792969" y="14.632812"/>
  <use xlink:href="#glyph2-15" x="325.792969" y="14.632812"/>
  <use xlink:href="#glyph2-5" x="332.792969" y="14.632812"/>
</g>
</g>
</svg>
